# xmcd
#
# Track frame offsets: 
#        187
#        12950
#        24657
#        34165
#        46285
#        74160
#        86435
#        101062
#        124402
#        144527
#        160630
#
# Disc length: 2303 seconds
#
# Revision: 2
# Processed by: cddbd v1.5.1PL0 Copyright (c) Steve Scherf et al.
# Submitted via: ExactAudioCopy v0.90b4
#
DISCID=9508fd0b
DTITLE=Charles Musselwhite - Memphis, Tennessee (MFSL)
DYEAR=1970
DGENRE=Blues
TTITLE0=She Used To Be Beautiful
TTITLE1=I Got To Go
TTITLE2=Memphis, Tennessee
TTITLE3=One Mint Julep
TTITLE4=Blues
TTITLE5=The Wolf
TTITLE6=Temperature
TTITLE7=Arkansas Boogie
TTITLE8=Willow Weep For Me
TTITLE9=Trouble No More
TTITLE10=Done Somebody Wrong
EXTD=1991 Mobile Fidelity Sound Lab\n\nOriginally Released 1970\nMFSL 
EXTD=Silver CD Edition Released January 1991 or February 14, 1991\n\nA
EXTD=MG EXPERT REVIEW: Though steel guitarist Freddie Roulette was pic
EXTD=tured on Tennessee Woman, he did not play on the album - luckily h
EXTD=e is given ample space here, and the combination of his eerie voc
EXTD=al-like sound, Jack Myers's solid but adventurous bass playing, a
EXTD=nd Skip Rose's jazz piano voicings made this edition of the Musse
EXTD=lwhite band one of the most original blues outfits ever. Charlie 
EXTD=is in fine form as well, on a rock-solid cover of Muddy's "Troubl
EXTD=e No More," and a lyrical reading of "Willow Weep for Me," and hi
EXTD=s harp tour de force "Arkansas Boogie." -- Dan Forte\n\nHalf.com 
EXTD=Album Credits\nDon Nix, Engineer\n\nAlbum Notes\nPersonnel: Charl
EXTD=ie Musselwhite (vocals, harmonica), Fred Roulette (steel guitar),
EXTD=William E. "Skip" Rose (piano, organ), Jack Myers (bass), Lonnie
EXTD=Castile (drums).\n\nRecorded at Ardent Studios, Memphis, Tenness
EXTD=ee. Includes liner notes by T.E. Matrox.
EXTT0=
EXTT1=
EXTT2=
EXTT3=
EXTT4=
EXTT5=
EXTT6=
EXTT7=
EXTT8=
EXTT9=
EXTT10=
PLAYORDER=
